,
  Hottest scene tracker on the net !!!   http://www.scenetime.com
 
         Please seed back after your download is completed

           Credit goes  to all seeders and  http://www.scenetime.com
 



...................................NFO:.................................................
                                                     
                                                   
                                                         
                                                          
                                                           
                                                          
                                                          
                                                          
                                                           
                                                         
                                                          
                                                        
                                                      
                                     
                                                 
                                                   
                                             
                                              
                                                     
                                                      
                                                      
                                                      
                                                    
                                                     
                                                   
                                                     
                                                     
                                                      
                                                     
                                                      
                                                    
                 ARTiCHOKE                        
                                                
                      
                                                        
                                                      
                                                      
                                               
                                          
                                                   
                                            
                                                    
                                                       
                                                        
                                                      
                                                
                                                        
                                                 
                                              
                                                  
                                                
                                                  
                                        

      
                                
      SPRiNTER proudly presents...     
                                
      
 
Rocky.Road.To.Dublin.1968.DVDRip.XViD-SPRiNTER
http://www.imdb.com/title/tt0192534/
http://www.dvdverdict.com/reviews/rockyroadtodublin.php



Date: 2010.12
Genre: Docu


Plot: After a decade abroad, Dublin-born journalist Peter Lennon returned to Ireland to survey the modern landscape, and the resulting 
	1967 documentary captures a populace firmly under the thumb of the church yet on the brink of violent upheaval. Virtually unseen at its 
	release, the restored film gives critical voice to leading cultural luminaries and regular folks alike, yielding a view of a "Celtic Tiger" that 
	was then a markedly different social animal.

Sean O'Faolin  ...  Himself  
Conor Cruise O'Brien  ...  Himself  
John Huston  ...  Himself  
Douglas Gageby  ...  Himself  
Jim Fitzgerald  ...  Himself  
Michael Cleary  ...  Himself (as Father Michael Cleary)  
    



      
                 
      Release notes     
                 
      

     Yes , audio is stereo. Check 2nd http link + jpg in sample dir!


      
           
     Greetings    
           
      


NTX aAF FiCO HNR CiNEFiLE AEN HUMANiSM SSF


      
           
      Details     
           
      


Format                           : AVI
Format/Info                      : Audio Video Interleave
File size                        : 700 MiB
Duration                         : 1h 7mn
Overall bit rate                 : 1 460 Kbps
Writing application              : Nandub v1.0rc2
Writing library                  : Nandub build 1852/release

Video
ID                               : 0
Format                           : MPEG-4 Visual
Format profile                   : AdvancedSimple@L5
Format settings, BVOP            : Yes
Format settings, QPel            : No
Format settings, GMC             : No warppoints
Format settings, Matrix          : Default (H.263)
Codec ID                         : XVID
Codec ID/Hint                    : XviD
Duration                         : 1h 7mn
Bit rate                         : 1 313 Kbps
Width                            : 512 pixels
Height                           : 384 pixels
Display aspect ratio             : 4:3
Frame rate                       : 25.000 fps
Resolution                       : 24 bits
Colorimetry                      : 4:2:0
Scan type                        : Progressive
Bits/(Pixel*Frame)               : 0.267
Stream size                      : 630 MiB (90%)
Writing library                  : XviD 1.2.1 (UTC 2008-12-04)

Audio
ID                               : 1
Format                           : MPEG Audio
Format version                   : Version 1
Format profile                   : Layer 3
Codec ID                         : 55
Codec ID/Hint                    : MP3
Duration                         : 1h 7mn
Bit rate mode                    : Variable
Bit rate                         : 134 Kbps
Channel(s)                       : 2 channels
Sampling rate                    : 48.0 KHz
Resolution                       : 16 bits
Stream size                      : 64.4 MiB (9%)
Alignment                        : Aligned on interleaves
Interleave, duration             : 24 ms (0.60 video frame)
Interleave, preload duration     : 205 ms
Writing library                  : LAME3.89 (alpha)